<svg width="24" height="24" viewBox="0 0 24 24" fill="none" xmlns="http://www.w3.org/2000/svg">
<g clip-path="url(#clip0_124_1058)">
<path d="M23.9765 7.05607C23.9203 5.78085 23.7141 4.90416 23.4187 4.14449C23.1139 3.33812 22.6451 2.61617 22.0308 2.01602C21.4307 1.40652 20.704 0.932921 19.9069 0.632936C19.1429 0.337529 18.2707 0.131312 16.9955 0.0750879C15.7108 0.0141019 15.3029 0 12.0445 0C8.78604 0 8.37818 0.0141019 7.09821 0.0703262C5.823 0.126551 4.9463 0.332951 4.18681 0.628174C3.38026 0.932922 2.65832 1.40176 2.05816 2.01602C1.44867 2.61617 0.975249 3.34288 0.675081 4.13991C0.379674 4.90416 0.173457 5.77609 0.117233 7.0513C0.0562466 8.33604 0.0421448 8.7439 0.0421448 12.0023C0.0421448 15.2608 0.0562466 15.6686 0.112471 16.9486C0.168695 18.2238 0.375096 19.1005 0.670502 19.8602C0.975249 20.6666 1.44867 21.3885 2.05816 21.9887C2.65832 22.5982 3.38502 23.0718 4.18205 23.3718C4.9463 23.6672 5.81824 23.8734 7.09363 23.9296C8.37342 23.986 8.78146 23.9999 12.0399 23.9999C15.2984 23.9999 15.7062 23.986 16.9862 23.9296C18.2614 23.8734 19.1381 23.6672 19.8976 23.3718C21.5105 22.7482 22.7857 21.4729 23.4093 19.8602C23.7045 19.096 23.9109 18.2238 23.9672 16.9486C24.0234 15.6686 24.0375 15.2608 24.0375 12.0023C24.0375 8.7439 24.0327 8.33604 23.9765 7.05607ZM21.8153 16.8549C21.7636 18.027 21.5667 18.6599 21.4026 19.0819C20.9994 20.1274 20.1695 20.9572 19.124 21.3605C18.702 21.5246 18.0645 21.7215 16.897 21.7729C15.6311 21.8293 15.2515 21.8433 12.0493 21.8433C8.84703 21.8433 8.46261 21.8293 7.20132 21.7729C6.02921 21.7215 5.39628 21.5246 4.97432 21.3605C4.45402 21.1682 3.98041 20.8634 3.596 20.4649C3.19749 20.0758 2.89274 19.6069 2.70044 19.0866C2.53635 18.6647 2.33947 18.027 2.28801 16.8596C2.2316 15.5937 2.21768 15.2139 2.21768 12.0117C2.21768 8.80946 2.2316 8.42505 2.28801 7.16394C2.33947 5.99183 2.53635 5.3589 2.70044 4.93694C2.89274 4.41645 3.19749 3.94303 3.60076 3.55843C3.98975 3.15992 4.4586 2.85517 4.97908 2.66306C5.40104 2.49896 6.03874 2.30209 7.20608 2.25044C8.47195 2.19422 8.85179 2.18011 12.0538 2.18011C15.2608 2.18011 15.6405 2.19422 16.9018 2.25044C18.0739 2.30209 18.7068 2.49896 19.1288 2.66306C19.6491 2.85517 20.1227 3.15992 20.5071 3.55843C20.9056 3.94761 21.2103 4.41645 21.4026 4.93694C21.5667 5.3589 21.7636 5.99641 21.8153 7.16394C21.8715 8.42981 21.8856 8.80946 21.8856 12.0117C21.8856 15.2139 21.8715 15.589 21.8153 16.8549Z" fill="white"/>
<path d="M12.0445 5.83704C8.64083 5.83704 5.87924 8.59844 5.87924 12.0023C5.87924 15.4062 8.64083 18.1676 12.0445 18.1676C15.4484 18.1676 18.2098 15.4062 18.2098 12.0023C18.2098 8.59844 15.4484 5.83704 12.0445 5.83704ZM12.0445 16.0016C9.83637 16.0016 8.04525 14.2106 8.04525 12.0023C8.04525 9.79399 9.83637 8.00305 12.0445 8.00305C14.2528 8.00305 16.0438 9.79399 16.0438 12.0023C16.0438 14.2106 14.2528 16.0016 12.0445 16.0016Z" fill="white"/>
<path d="M19.893 5.59336C19.893 6.38819 19.2485 7.03267 18.4535 7.03267C17.6587 7.03267 17.0142 6.38819 17.0142 5.59336C17.0142 4.79834 17.6587 4.15405 18.4535 4.15405C19.2485 4.15405 19.893 4.79834 19.893 5.59336Z" fill="white"/>
</g>
<defs>
<clipPath id="clip0_124_1058">
<rect width="24" height="24" fill="white"/>
</clipPath>
</defs>
</svg>
