<svg width="20" height="20" viewBox="0 0 20 20" fill="none" xmlns="http://www.w3.org/2000/svg">
<path d="M2.38462 3.0769C2.01739 3.0769 1.66521 3.22279 1.40554 3.48244C1.14588 3.74212 1 4.09429 1 4.46152V17.6154C1 17.9826 1.14588 18.3348 1.40554 18.5944C1.66521 18.854 2.01739 19 2.38462 19H17.6154C17.9826 19 18.3348 18.854 18.5944 18.5944C18.8541 18.3348 19 17.9826 19 17.6154V4.46152C19 4.09429 18.8541 3.74212 18.5944 3.48244C18.3348 3.22279 17.9826 3.0769 17.6154 3.0769H14.8462" stroke="#001D5D" stroke-width="1.42857" stroke-linecap="round" stroke-linejoin="round"/>
<path d="M5.15381 1V5.15385" stroke="#001D5D" stroke-width="1.42857" stroke-linecap="round" stroke-linejoin="round"/>
<path d="M14.8461 1V5.15385" stroke="#001D5D" stroke-width="1.42857" stroke-linecap="round" stroke-linejoin="round"/>
<path d="M5.15381 3.0769H12.0769" stroke="#001D5D" stroke-width="1.42857" stroke-linecap="round" stroke-linejoin="round"/>
<path d="M5.15386 9.30771C5.5362 9.30771 5.84616 8.99775 5.84616 8.6154C5.84616 8.23306 5.5362 7.9231 5.15386 7.9231C4.77151 7.9231 4.46155 8.23306 4.46155 8.6154C4.46155 8.99775 4.77151 9.30771 5.15386 9.30771Z" stroke="#001D5D" stroke-width="1.42857" stroke-linecap="round" stroke-linejoin="round"/>
<path d="M9.99999 9.30771C10.3823 9.30771 10.6923 8.99775 10.6923 8.6154C10.6923 8.23306 10.3823 7.9231 9.99999 7.9231C9.61764 7.9231 9.30768 8.23306 9.30768 8.6154C9.30768 8.99775 9.61764 9.30771 9.99999 9.30771Z" stroke="#001D5D" stroke-width="1.42857" stroke-linecap="round" stroke-linejoin="round"/>
<path d="M14.8461 9.30771C15.2284 9.30771 15.5384 8.99775 15.5384 8.6154C15.5384 8.23306 15.2284 7.9231 14.8461 7.9231C14.4638 7.9231 14.1538 8.23306 14.1538 8.6154C14.1538 8.99775 14.4638 9.30771 14.8461 9.30771Z" stroke="#001D5D" stroke-width="1.42857" stroke-linecap="round" stroke-linejoin="round"/>
<path d="M5.15386 14.8462C5.5362 14.8462 5.84616 14.5361 5.84616 14.1539C5.84616 13.7715 5.5362 13.4615 5.15386 13.4615C4.77151 13.4615 4.46155 13.7715 4.46155 14.1539C4.46155 14.5361 4.77151 14.8462 5.15386 14.8462Z" stroke="#001D5D" stroke-width="1.42857" stroke-linecap="round" stroke-linejoin="round"/>
<path d="M9.99999 14.8462C10.3823 14.8462 10.6923 14.5361 10.6923 14.1539C10.6923 13.7715 10.3823 13.4615 9.99999 13.4615C9.61764 13.4615 9.30768 13.7715 9.30768 14.1539C9.30768 14.5361 9.61764 14.8462 9.99999 14.8462Z" stroke="#001D5D" stroke-width="1.42857" stroke-linecap="round" stroke-linejoin="round"/>
</svg>
