<svg width="21" height="20" viewBox="0 0 21 20" fill="none" xmlns="http://www.w3.org/2000/svg">
<g clip-path="url(#clip0_124_1053)">
<path d="M4.14297 19.1713C5.72093 19.1713 7.00011 17.8921 7.00011 16.3142C7.00011 14.7362 5.72093 13.457 4.14297 13.457C2.56501 13.457 1.28583 14.7362 1.28583 16.3142C1.28583 17.8921 2.56501 19.1713 4.14297 19.1713Z" stroke="#001D5D" stroke-width="1.42857" stroke-linecap="round" stroke-linejoin="round"/>
<path d="M17.0001 15.5999C18.5781 15.5999 19.8573 14.3207 19.8573 12.7428C19.8573 11.1648 18.5781 9.88562 17.0001 9.88562C15.4222 9.88562 14.143 11.1648 14.143 12.7428C14.143 14.3207 15.4222 15.5999 17.0001 15.5999Z" stroke="#001D5D" stroke-width="1.42857" stroke-linecap="round" stroke-linejoin="round"/>
<path d="M19.8573 12.7428V1.5428C19.8567 1.4335 19.831 1.32581 19.7822 1.228C19.7334 1.13019 19.6628 1.04488 19.5759 0.97864C19.4889 0.9124 19.388 0.866995 19.2807 0.845922C19.1735 0.824848 19.0628 0.828668 18.9573 0.857088L7.52869 4.02852C7.37767 4.06918 7.24416 4.15829 7.14868 4.28216C7.05319 4.40604 7.001 4.55783 7.00012 4.71423V16.3142" stroke="#001D5D" stroke-width="1.42857" stroke-linecap="round" stroke-linejoin="round"/>
<path d="M7.00012 8.45705L19.8573 4.88562" stroke="#001D5D" stroke-width="1.42857" stroke-linecap="round" stroke-linejoin="round"/>
</g>
<defs>
<clipPath id="clip0_124_1053">
<rect width="20" height="20" fill="white" transform="translate(0.571533)"/>
</clipPath>
</defs>
</svg>
