<svg width="21" height="20" viewBox="0 0 21 20" fill="none" xmlns="http://www.w3.org/2000/svg">
<g clip-path="url(#clip0_124_1052)">
<path d="M7.71437 9.28568C9.68682 9.28568 11.2858 7.68669 11.2858 5.71425C11.2858 3.74181 9.68682 2.14282 7.71437 2.14282C5.74193 2.14282 4.14294 3.74181 4.14294 5.71425C4.14294 7.68669 5.74193 9.28568 7.71437 9.28568Z" stroke="#001D5D" stroke-width="1.42857" stroke-linecap="round" stroke-linejoin="round"/>
<path d="M1.28583 19.2857H7.7144H14.143V18.5112C14.1316 17.4222 13.8444 16.3541 13.3083 15.4062C12.7722 14.4585 12.0045 13.6621 11.0772 13.0914C10.1498 12.5206 9.09284 12.1943 8.00514 12.1428C7.90817 12.1382 7.81123 12.1358 7.7144 12.1356C7.61757 12.1358 7.52063 12.1382 7.42366 12.1428C6.33596 12.1943 5.27904 12.5206 4.35164 13.0914C3.42426 13.6621 2.65664 14.4585 2.1205 15.4062C1.58437 16.3541 1.2972 17.4222 1.28583 18.5112V19.2857Z" stroke="#001D5D" stroke-width="1.42857" stroke-linecap="round" stroke-linejoin="round"/>
<path d="M13.4287 9.28568C15.4011 9.28568 17.0001 7.68669 17.0001 5.71425C17.0001 3.74181 15.4011 2.14282 13.4287 2.14282" stroke="#001D5D" stroke-width="1.42857" stroke-linecap="round" stroke-linejoin="round"/>
<path d="M17.0001 19.2857H19.8572V18.5113C19.8458 17.4223 19.5587 16.3541 19.0225 15.4063C18.4864 14.4586 17.7188 13.6621 16.7914 13.0914C16.192 12.7225 15.5382 12.4557 14.8572 12.2992" stroke="#001D5D" stroke-width="1.42857" stroke-linecap="round" stroke-linejoin="round"/>
</g>
<defs>
<clipPath id="clip0_124_1052">
<rect width="20" height="20" fill="white" transform="translate(0.571533)"/>
</clipPath>
</defs>
</svg>
