<svg width="21" height="20" viewBox="0 0 21 20" fill="none" xmlns="http://www.w3.org/2000/svg">
<g clip-path="url(#clip0_124_1054)">
<path d="M13.5287 17.1428C12.4528 18.2415 11.0511 18.9636 9.53203 19.2019C8.01292 19.4402 6.45747 19.1818 5.09692 18.4653C3.73637 17.7488 2.64336 16.6124 1.98039 15.225C1.31741 13.8375 1.11987 12.2732 1.41712 10.7645C1.71437 9.25584 2.49054 7.88336 3.63025 6.85111C4.76997 5.81887 6.21237 5.18197 7.74302 5.0351C9.27368 4.88824 10.8109 5.23925 12.1261 6.03595C13.4413 6.83264 14.4643 8.0325 15.043 9.45713" stroke="#001D5D" stroke-width="1.42857" stroke-linecap="round" stroke-linejoin="round"/>
<path d="M14.1429 13.5714L18.4287 11.4286V5" stroke="#001D5D" stroke-width="1.42857" stroke-linecap="round" stroke-linejoin="round"/>
<path d="M8.42867 12.857C8.82316 12.857 9.14296 12.5372 9.14296 12.1428C9.14296 11.7483 8.82316 11.4285 8.42867 11.4285C8.03418 11.4285 7.71439 11.7483 7.71439 12.1428C7.71439 12.5372 8.03418 12.857 8.42867 12.857Z" stroke="#001D5D" stroke-width="1.42857" stroke-linecap="round" stroke-linejoin="round"/>
<path d="M19.8572 0.714233H17.0001V4.99995H19.8572V0.714233Z" stroke="#001D5D" stroke-width="1.42857" stroke-linecap="round" stroke-linejoin="round"/>
</g>
<defs>
<clipPath id="clip0_124_1054">
<rect width="20" height="20" fill="white" transform="translate(0.571533)"/>
</clipPath>
</defs>
</svg>
