<svg width="106" height="40" viewBox="0 0 106 40" fill="none" xmlns="http://www.w3.org/2000/svg">
<path d="M0 26L4.65366 18.8627H38.7805L40.3317 16.3137H6.20488L16.5463 0H106L97.7268 14.7843H89.9707L96.6927 26H78.5951L72.9073 16.3137H64.1171L68.2537 10.1961H82.2146V7.64706H31.5415L28.9561 10.1961L63.0829 11.2157L53.7756 26H0Z" fill="#001D5D"/>
<path d="M5.04215 32.4029C5.00771 32.0859 4.86259 31.8391 4.60677 31.6624C4.35341 31.4858 4.02379 31.3975 3.61793 31.3975C3.33259 31.3975 3.08784 31.4398 2.88368 31.5245C2.67951 31.6092 2.52331 31.7241 2.41508 31.8693C2.30685 32.0145 2.25151 32.1803 2.24905 32.3666C2.24905 32.5215 2.28471 32.6558 2.35605 32.7695C2.42984 32.8832 2.52946 32.98 2.65491 33.0599C2.78036 33.1373 2.91934 33.2027 3.07185 33.2559C3.22436 33.3091 3.3781 33.3539 3.53306 33.3902L4.24149 33.5644C4.52682 33.6298 4.80109 33.7181 5.06429 33.8294C5.32995 33.9407 5.56732 34.0811 5.7764 34.2505C5.98794 34.4198 6.15521 34.6243 6.2782 34.8639C6.40119 35.1034 6.46269 35.3842 6.46269 35.706C6.46269 36.1416 6.34953 36.5251 6.12323 36.8566C5.89693 37.1857 5.56978 37.4434 5.14177 37.6298C4.71623 37.8137 4.2009 37.9056 3.59579 37.9056C3.0079 37.9056 2.49749 37.8161 2.06456 37.637C1.6341 37.458 1.2971 37.1966 1.05358 36.853C0.812523 36.5094 0.682154 36.0907 0.662476 35.5971H2.00922C2.02889 35.856 2.11007 36.0714 2.25274 36.2432C2.3954 36.415 2.58112 36.5433 2.80988 36.628C3.0411 36.7126 3.29938 36.755 3.58472 36.755C3.88235 36.755 4.14309 36.7114 4.36694 36.6243C4.59324 36.5348 4.77034 36.4114 4.89825 36.2541C5.02616 36.0944 5.09135 35.908 5.09381 35.6951C5.09135 35.5015 5.03354 35.3418 4.92039 35.216C4.80724 35.0877 4.64858 34.9812 4.44442 34.8966C4.24272 34.8094 4.00657 34.732 3.736 34.6642L2.8763 34.4465C2.25397 34.2892 1.76201 34.0508 1.40042 33.7314C1.04128 33.4096 0.861719 32.9825 0.861719 32.4501C0.861719 32.0121 0.98225 31.6286 1.22331 31.2995C1.46683 30.9704 1.79767 30.7151 2.21584 30.5336C2.63401 30.3497 3.10752 30.2577 3.63637 30.2577C4.17261 30.2577 4.64243 30.3497 5.04584 30.5336C5.45171 30.7151 5.77025 30.9679 6.00147 31.2922C6.23269 31.614 6.35199 31.9843 6.35937 32.4029H5.04215Z" fill="#001D5D"/>
<path d="M8.5581 39.8838C8.37608 39.8838 8.20758 39.8693 8.05261 39.8403C7.90011 39.8137 7.77835 39.7822 7.68733 39.7459L7.99727 38.7223C8.19159 38.778 8.36501 38.8046 8.51752 38.8022C8.67002 38.7998 8.80408 38.7526 8.91969 38.6606C9.03776 38.5711 9.13739 38.4211 9.21856 38.2105L9.33294 37.9093L7.27778 32.2178H8.69462L10.0008 36.4283H10.0598L11.3697 32.2178H12.7902L10.521 38.4682C10.4153 38.7635 10.275 39.0163 10.1004 39.2269C9.92575 39.4398 9.71175 39.6019 9.45839 39.7133C9.20749 39.827 8.90739 39.8838 8.5581 39.8838Z" fill="#001D5D"/>
<path d="M15.154 34.5263V37.7931H13.8184V32.2178H15.095V33.1652H15.1614C15.2918 32.853 15.4996 32.605 15.785 32.4211C16.0728 32.2371 16.4282 32.1452 16.8513 32.1452C17.2424 32.1452 17.5831 32.2275 17.8733 32.392C18.1661 32.5566 18.3924 32.7949 18.5522 33.1071C18.7146 33.4192 18.7945 33.7979 18.7921 34.2432V37.7931H17.4564V34.4465C17.4564 34.0738 17.358 33.7822 17.1612 33.5717C16.9669 33.3612 16.6976 33.2559 16.3532 33.2559C16.1195 33.2559 15.9117 33.3067 15.7296 33.4083C15.5501 33.5076 15.4086 33.6515 15.3053 33.8403C15.2045 34.029 15.154 34.2577 15.154 34.5263Z" fill="#001D5D"/>
<path d="M22.3569 37.8911C21.9117 37.8911 21.5132 37.7786 21.1615 37.5535C20.8097 37.3285 20.5317 37.0018 20.3276 36.5735C20.1234 36.1452 20.0213 35.6249 20.0213 35.0127C20.0213 34.3932 20.1246 33.8705 20.3313 33.4446C20.5404 33.0163 20.822 32.6933 21.1762 32.4755C21.5304 32.2553 21.9252 32.1452 22.3606 32.1452C22.6927 32.1452 22.9657 32.2008 23.1797 32.3122C23.3937 32.4211 23.5634 32.5529 23.6889 32.7078C23.8144 32.8603 23.9115 33.0042 23.9804 33.1397H24.0357V30.3593H25.3751V37.7931H24.0616V36.9147H23.9804C23.9115 37.0502 23.8119 37.1942 23.6815 37.3466C23.5512 37.4967 23.379 37.6249 23.165 37.7314C22.951 37.8379 22.6816 37.8911 22.3569 37.8911ZM22.7296 36.8131C23.0125 36.8131 23.2535 36.7381 23.4528 36.588C23.652 36.4356 23.8033 36.2238 23.9066 35.9528C24.0099 35.6818 24.0616 35.366 24.0616 35.0054C24.0616 34.6449 24.0099 34.3315 23.9066 34.0653C23.8057 33.7992 23.6557 33.5923 23.4564 33.4446C23.2597 33.297 23.0174 33.2232 22.7296 33.2232C22.4319 33.2232 22.1835 33.2995 21.9843 33.4519C21.785 33.6044 21.635 33.8149 21.5341 34.0835C21.4333 34.3521 21.3828 34.6594 21.3828 35.0054C21.3828 35.3539 21.4333 35.6649 21.5341 35.9383C21.6374 36.2093 21.7887 36.4235 21.9879 36.5808C22.1897 36.7356 22.4369 36.8131 22.7296 36.8131Z" fill="#001D5D"/>
<path d="M29.4113 37.902C28.8431 37.902 28.3524 37.7858 27.9391 37.5535C27.5283 37.3188 27.2122 36.9873 26.9909 36.559C26.7695 36.1283 26.6588 35.6213 26.6588 35.0381C26.6588 34.4646 26.7695 33.9613 26.9909 33.5281C27.2147 33.0926 27.5271 32.7538 27.928 32.5118C28.329 32.2674 28.8 32.1452 29.3412 32.1452C29.6905 32.1452 30.0201 32.2008 30.33 32.3122C30.6424 32.4211 30.9179 32.5904 31.1565 32.8203C31.3976 33.0502 31.587 33.343 31.7247 33.6987C31.8625 34.052 31.9314 34.4731 31.9314 34.9619V35.3648H27.286V34.4791H30.651C30.6486 34.2275 30.5932 34.0036 30.485 33.8076C30.3768 33.6092 30.2255 33.4531 30.0312 33.3394C29.8393 33.2257 29.6155 33.1688 29.3596 33.1688C29.0866 33.1688 28.8468 33.2341 28.6401 33.3648C28.4335 33.493 28.2724 33.6624 28.1568 33.873C28.0436 34.0811 27.9858 34.3097 27.9834 34.559V35.3321C27.9834 35.6564 28.0436 35.9347 28.1642 36.167C28.2847 36.3969 28.4532 36.5735 28.6697 36.6969C28.8861 36.8179 29.1395 36.8784 29.4297 36.8784C29.6241 36.8784 29.7999 36.8518 29.9574 36.7985C30.1148 36.7429 30.2513 36.6618 30.3669 36.5554C30.4825 36.4489 30.5699 36.317 30.6289 36.1597L31.876 36.2976C31.7973 36.6219 31.6473 36.905 31.4259 37.147C31.2069 37.3866 30.9265 37.5729 30.5846 37.706C30.2427 37.8367 29.8516 37.902 29.4113 37.902Z" fill="#001D5D"/>
<path d="M33.1652 37.7931V32.2178H34.4603V33.147H34.5194C34.6227 32.8252 34.7998 32.5771 35.0507 32.4029C35.304 32.2263 35.5931 32.1379 35.9178 32.1379C35.9915 32.1379 36.0739 32.1416 36.165 32.1488C36.2584 32.1537 36.3359 32.1621 36.3974 32.1742V33.3829C36.3408 33.3636 36.2511 33.3466 36.1281 33.3321C36.0075 33.3152 35.8907 33.3067 35.7775 33.3067C35.534 33.3067 35.3151 33.3587 35.1208 33.4628C34.9289 33.5644 34.7776 33.706 34.6669 33.8875C34.5563 34.069 34.5009 34.2783 34.5009 34.5154V37.7931H33.1652Z" fill="#001D5D"/>
<path d="M40.1289 37.7931V30.3593H42.9626C43.5431 30.3593 44.0301 30.4586 44.4237 30.657C44.8197 30.8554 45.1186 31.1337 45.3203 31.4918C45.5245 31.8476 45.6265 32.2626 45.6265 32.7368C45.6265 33.2136 45.5232 33.6273 45.3166 33.9782C45.1124 34.3267 44.8111 34.5965 44.4126 34.7877C44.0141 34.9764 43.5246 35.0708 42.9441 35.0708H40.9259V33.9528H42.7596C43.0991 33.9528 43.377 33.9068 43.5935 33.8149C43.81 33.7205 43.9699 33.5838 44.0732 33.4047C44.1789 33.2232 44.2318 33.0006 44.2318 32.7368C44.2318 32.4731 44.1789 32.248 44.0732 32.0617C43.9674 31.873 43.8063 31.7302 43.5898 31.6334C43.3734 31.5342 43.0942 31.4846 42.7523 31.4846H41.4978V37.7931H40.1289ZM44.0326 34.4247L45.9033 37.7931H44.3757L42.5383 34.4247H44.0326Z" fill="#001D5D"/>
<path d="M49.3593 37.902C48.791 37.902 48.3003 37.7858 47.8871 37.5535C47.4763 37.3188 47.1602 36.9873 46.9388 36.559C46.7174 36.1283 46.6067 35.6213 46.6067 35.0381C46.6067 34.4646 46.7174 33.9613 46.9388 33.5281C47.1627 33.0926 47.475 32.7538 47.876 32.5118C48.2769 32.2674 48.748 32.1452 49.2892 32.1452C49.6384 32.1452 49.9681 32.2008 50.278 32.3122C50.5904 32.4211 50.8659 32.5904 51.1045 32.8203C51.3455 33.0502 51.535 33.343 51.6727 33.6987C51.8104 34.052 51.8793 34.4731 51.8793 34.9619V35.3648H47.234V34.4791H50.599C50.5965 34.2275 50.5412 34.0036 50.433 33.8076C50.3247 33.6092 50.1735 33.4531 49.9791 33.3394C49.7873 33.2257 49.5634 33.1688 49.3076 33.1688C49.0346 33.1688 48.7947 33.2341 48.5881 33.3648C48.3815 33.493 48.2204 33.6624 48.1048 33.873C47.9916 34.0811 47.9338 34.3097 47.9313 34.559V35.3321C47.9313 35.6564 47.9916 35.9347 48.1121 36.167C48.2327 36.3969 48.4012 36.5735 48.6176 36.6969C48.8341 36.8179 49.0874 36.8784 49.3777 36.8784C49.572 36.8784 49.7479 36.8518 49.9053 36.7985C50.0628 36.7429 50.1993 36.6618 50.3149 36.5554C50.4305 36.4489 50.5178 36.317 50.5769 36.1597L51.824 36.2976C51.7453 36.6219 51.5952 36.905 51.3738 37.147C51.1549 37.3866 50.8745 37.5729 50.5326 37.706C50.1907 37.8367 49.7996 37.902 49.3593 37.902Z" fill="#001D5D"/>
<path d="M55.5853 37.902C55.0195 37.902 54.5337 37.7798 54.1279 37.5354C53.7245 37.291 53.4133 36.9534 53.1944 36.5227C52.9779 36.0895 52.8697 35.591 52.8697 35.0272C52.8697 34.461 52.9804 33.9613 53.2018 33.5281C53.4231 33.0926 53.7355 32.7538 54.1389 32.5118C54.5448 32.2674 55.0245 32.1452 55.5779 32.1452C56.0379 32.1452 56.445 32.2287 56.7992 32.3956C57.1559 32.5602 57.44 32.7937 57.6515 33.0962C57.8631 33.3962 57.9836 33.7471 58.0131 34.1488H56.7365C56.6848 33.8802 56.5618 33.6564 56.3675 33.4773C56.1756 33.2958 55.9186 33.2051 55.5964 33.2051C55.3233 33.2051 55.0835 33.2777 54.8769 33.4229C54.6703 33.5656 54.5091 33.7713 54.3935 34.0399C54.2804 34.3085 54.2238 34.6304 54.2238 35.0054C54.2238 35.3854 54.2804 35.712 54.3935 35.9855C54.5067 36.2565 54.6653 36.4658 54.8695 36.6134C55.0761 36.7586 55.3184 36.8312 55.5964 36.8312C55.7931 36.8312 55.969 36.7949 56.124 36.7223C56.2814 36.6473 56.413 36.5396 56.5188 36.3993C56.6246 36.2589 56.6971 36.0883 56.7365 35.8875H58.0131C57.9811 36.2819 57.8631 36.6316 57.6589 36.9365C57.4547 37.239 57.1768 37.4761 56.825 37.6479C56.4733 37.8173 56.06 37.902 55.5853 37.902Z" fill="#001D5D"/>
<path d="M61.6859 37.902C61.1324 37.902 60.6528 37.7822 60.2469 37.5427C59.841 37.3031 59.5262 36.9679 59.3023 36.5372C59.081 36.1065 58.9703 35.6031 58.9703 35.0272C58.9703 34.4513 59.081 33.9468 59.3023 33.5136C59.5262 33.0805 59.841 32.7441 60.2469 32.5045C60.6528 32.265 61.1324 32.1452 61.6859 32.1452C62.2393 32.1452 62.719 32.265 63.1249 32.5045C63.5307 32.7441 63.8444 33.0805 64.0657 33.5136C64.2896 33.9468 64.4015 34.4513 64.4015 35.0272C64.4015 35.6031 64.2896 36.1065 64.0657 36.5372C63.8444 36.9679 63.5307 37.3031 63.1249 37.5427C62.719 37.7822 62.2393 37.902 61.6859 37.902ZM61.6933 36.8494C61.9934 36.8494 62.2443 36.7683 62.446 36.6062C62.6477 36.4416 62.7977 36.2214 62.8961 35.9456C62.997 35.6697 63.0474 35.3624 63.0474 35.0236C63.0474 34.6824 62.997 34.3739 62.8961 34.098C62.7977 33.8197 62.6477 33.5983 62.446 33.4338C62.2443 33.2692 61.9934 33.1869 61.6933 33.1869C61.3858 33.1869 61.13 33.2692 60.9258 33.4338C60.7241 33.5983 60.5728 33.8197 60.472 34.098C60.3736 34.3739 60.3244 34.6824 60.3244 35.0236C60.3244 35.3624 60.3736 35.6697 60.472 35.9456C60.5728 36.2214 60.7241 36.4416 60.9258 36.6062C61.13 36.7683 61.3858 36.8494 61.6933 36.8494Z" fill="#001D5D"/>
<path d="M65.6391 37.7931V32.2178H66.9342V33.147H66.9932C67.0965 32.8252 67.2736 32.5771 67.5245 32.4029C67.7779 32.2263 68.0669 32.1379 68.3916 32.1379C68.4654 32.1379 68.5478 32.1416 68.6388 32.1488C68.7323 32.1537 68.8097 32.1621 68.8712 32.1742V33.3829C68.8147 33.3636 68.7249 33.3466 68.6019 33.3321C68.4814 33.3152 68.3645 33.3067 68.2514 33.3067C68.0079 33.3067 67.7889 33.3587 67.5946 33.4628C67.4027 33.5644 67.2515 33.706 67.1408 33.8875C67.0301 34.069 66.9747 34.2783 66.9747 34.5154V37.7931H65.6391Z" fill="#001D5D"/>
<path d="M71.7323 37.8911C71.287 37.8911 70.8885 37.7786 70.5368 37.5535C70.185 37.3285 69.9071 37.0018 69.7029 36.5735C69.4988 36.1452 69.3967 35.6249 69.3967 35.0127C69.3967 34.3932 69.5 33.8705 69.7066 33.4446C69.9157 33.0163 70.1973 32.6933 70.5516 32.4755C70.9058 32.2553 71.3006 32.1452 71.736 32.1452C72.068 32.1452 72.3411 32.2008 72.5551 32.3122C72.7691 32.4211 72.9388 32.5529 73.0642 32.7078C73.1897 32.8603 73.2869 33.0042 73.3557 33.1397H73.4111V30.3593H74.7504V37.7931H73.4369V36.9147H73.3557C73.2869 37.0502 73.1872 37.1942 73.0569 37.3466C72.9265 37.4967 72.7543 37.6249 72.5403 37.7314C72.3263 37.8379 72.057 37.8911 71.7323 37.8911ZM72.1049 36.8131C72.3878 36.8131 72.6289 36.7381 72.8281 36.588C73.0274 36.4356 73.1786 36.2238 73.2819 35.9528C73.3853 35.6818 73.4369 35.366 73.4369 35.0054C73.4369 34.6449 73.3853 34.3315 73.2819 34.0653C73.1811 33.7992 73.031 33.5923 72.8318 33.4446C72.635 33.297 72.3927 33.2232 72.1049 33.2232C71.8073 33.2232 71.5588 33.2995 71.3596 33.4519C71.1604 33.6044 71.0103 33.8149 70.9095 34.0835C70.8086 34.3521 70.7582 34.6594 70.7582 35.0054C70.7582 35.3539 70.8086 35.6649 70.9095 35.9383C71.0128 36.2093 71.164 36.4235 71.3633 36.5808C71.565 36.7356 71.8122 36.8131 72.1049 36.8131Z" fill="#001D5D"/>
<path d="M76.2776 37.7931V32.2178H77.6133V37.7931H76.2776ZM76.9492 31.4265C76.7376 31.4265 76.5556 31.3575 76.4031 31.2196C76.2506 31.0792 76.1743 30.9111 76.1743 30.7151C76.1743 30.5166 76.2506 30.3485 76.4031 30.2105C76.5556 30.0702 76.7376 30 76.9492 30C77.1632 30 77.3452 30.0702 77.4953 30.2105C77.6478 30.3485 77.724 30.5166 77.724 30.7151C77.724 30.9111 77.6478 31.0792 77.4953 31.2196C77.3452 31.3575 77.1632 31.4265 76.9492 31.4265Z" fill="#001D5D"/>
<path d="M80.4264 34.5263V37.7931H79.0907V32.2178H80.3674V33.1652H80.4338C80.5641 32.853 80.772 32.605 81.0573 32.4211C81.3451 32.2371 81.7006 32.1452 82.1236 32.1452C82.5148 32.1452 82.8554 32.2275 83.1457 32.392C83.4384 32.5566 83.6647 32.7949 83.8246 33.1071C83.987 33.4192 84.0669 33.7979 84.0644 34.2432V37.7931H82.7288V34.4465C82.7288 34.0738 82.6304 33.7822 82.4336 33.5717C82.2393 33.3612 81.9699 33.2559 81.6255 33.2559C81.3919 33.2559 81.184 33.3067 81.002 33.4083C80.8224 33.5076 80.681 33.6515 80.5777 33.8403C80.4768 34.029 80.4264 34.2577 80.4264 34.5263Z" fill="#001D5D"/>
<path d="M87.9909 40C87.5112 40 87.0992 39.9359 86.7548 39.8076C86.4104 39.6818 86.1337 39.5124 85.9246 39.2995C85.7155 39.0865 85.5704 38.8506 85.4892 38.5917L86.6921 38.3049C86.7462 38.4138 86.8249 38.5215 86.9282 38.6279C87.0315 38.7368 87.1705 38.8264 87.3452 38.8966C87.5223 38.9691 87.7449 39.0054 88.013 39.0054C88.3918 39.0054 88.7054 38.9147 88.9539 38.7332C89.2023 38.5541 89.3265 38.2589 89.3265 37.8476V36.7913H89.2601C89.1912 36.9268 89.0904 37.0659 88.9576 37.2087C88.8272 37.3515 88.6538 37.4713 88.4373 37.5681C88.2233 37.6649 87.954 37.7132 87.6293 37.7132C87.1939 37.7132 86.7991 37.6128 86.4449 37.412C86.0931 37.2087 85.8127 36.9062 85.6036 36.5045C85.397 36.1004 85.2937 35.5947 85.2937 34.9873C85.2937 34.3751 85.397 33.8584 85.6036 33.4374C85.8127 33.0139 86.0944 32.6933 86.4486 32.4755C86.8028 32.2553 87.1976 32.1452 87.633 32.1452C87.965 32.1452 88.2381 32.2008 88.4521 32.3122C88.6685 32.4211 88.8407 32.5529 88.9686 32.7078C89.0965 32.8603 89.1937 33.0042 89.2601 33.1397H89.3339V32.2178H90.6511V37.8838C90.6511 38.3606 90.5355 38.755 90.3043 39.0672C90.0731 39.3793 89.757 39.6128 89.356 39.7677C88.9551 39.9226 88.5 40 87.9909 40ZM88.0019 36.6824C88.2848 36.6824 88.5259 36.6146 88.7251 36.4791C88.9244 36.3436 89.0756 36.1488 89.1789 35.8947C89.2823 35.6407 89.3339 35.3358 89.3339 34.98C89.3339 34.6292 89.2823 34.3218 89.1789 34.0581C89.0781 33.7943 88.928 33.5898 88.7288 33.4446C88.532 33.297 88.2897 33.2232 88.0019 33.2232C87.7043 33.2232 87.4559 33.2995 87.2566 33.4519C87.0574 33.6044 86.9073 33.8137 86.8065 34.0799C86.7056 34.3436 86.6552 34.6437 86.6552 34.98C86.6552 35.3212 86.7056 35.6201 86.8065 35.8766C86.9098 36.1307 87.0611 36.3291 87.2603 36.4719C87.462 36.6122 87.7092 36.6824 88.0019 36.6824Z" fill="#001D5D"/>
<path d="M96.6032 33.6915L95.3856 33.8221C95.3512 33.7012 95.2909 33.5874 95.2048 33.4809C95.1212 33.3745 95.008 33.2886 94.8654 33.2232C94.7227 33.1579 94.5481 33.1252 94.3414 33.1252C94.0635 33.1252 93.8298 33.1845 93.6404 33.3031C93.4534 33.4217 93.3612 33.5753 93.3637 33.7641C93.3612 33.9262 93.4215 34.0581 93.5445 34.1597C93.6699 34.2613 93.8765 34.3448 94.1643 34.4102L95.131 34.6134C95.6673 34.7272 96.0658 34.9074 96.3265 35.1543C96.5897 35.4011 96.7225 35.7241 96.725 36.1234C96.7225 36.4743 96.618 36.784 96.4114 37.0526C96.2072 37.3188 95.9231 37.5269 95.559 37.677C95.195 37.827 94.7768 37.902 94.3045 37.902C93.6109 37.902 93.0525 37.7592 92.6294 37.4737C92.2063 37.1857 91.9542 36.7852 91.873 36.2722L93.1755 36.1488C93.2345 36.4005 93.36 36.5904 93.5518 36.7187C93.7437 36.8469 93.9934 36.9111 94.3008 36.9111C94.6182 36.9111 94.8727 36.8469 95.0646 36.7187C95.2589 36.5904 95.3561 36.4319 95.3561 36.2432C95.3561 36.0835 95.2934 35.9516 95.1679 35.8476C95.0449 35.7435 94.8531 35.6636 94.5923 35.608L93.6256 35.4083C93.082 35.297 92.6798 35.1095 92.4191 34.8457C92.1584 34.5796 92.0292 34.2432 92.0317 33.8367C92.0292 33.493 92.1239 33.1954 92.3158 32.9437C92.5101 32.6897 92.7795 32.4936 93.1238 32.3557C93.4707 32.2154 93.8704 32.1452 94.323 32.1452C94.9871 32.1452 95.5098 32.2843 95.8911 32.5626C96.2748 32.8409 96.5122 33.2172 96.6032 33.6915Z" fill="#001D5D"/>
</svg>
