<svg width="168" height="63" viewBox="0 0 168 63" fill="none" xmlns="http://www.w3.org/2000/svg">
<path d="M0 40.95L7.37561 29.7088H61.4634L63.922 25.6941H9.83415L26.2244 0H168L154.888 23.2853H142.595L153.249 40.95H124.566L115.551 25.6941H101.62L108.176 16.0588H130.302V12.0441H49.9902L45.8927 16.0588L99.9805 17.6647L85.2293 40.95H0Z" fill="white"/>
<path d="M7.99142 51.0346C7.93684 50.5353 7.70683 50.1466 7.30138 49.8683C6.89983 49.5901 6.37742 49.451 5.73416 49.451C5.28193 49.451 4.89402 49.5177 4.57044 49.6511C4.24686 49.7845 3.9993 49.9655 3.82777 50.1942C3.65623 50.4229 3.56851 50.6839 3.56462 50.9774C3.56462 51.2213 3.62114 51.4328 3.7342 51.612C3.85116 51.7911 4.00905 51.9436 4.20788 52.0693C4.4067 52.1913 4.62697 52.2942 4.86868 52.378C5.11039 52.4619 5.35405 52.5324 5.59966 52.5896L6.72244 52.864C7.17467 52.9669 7.60936 53.106 8.02651 53.2813C8.44755 53.4566 8.82376 53.6777 9.15514 53.9445C9.49041 54.2113 9.75552 54.5333 9.95044 54.9106C10.1454 55.2879 10.2428 55.73 10.2428 56.2369C10.2428 56.923 10.0635 57.527 9.70483 58.0492C9.34617 58.5675 8.82766 58.9734 8.14931 59.2669C7.47486 59.5565 6.65812 59.7014 5.69907 59.7014C4.76732 59.7014 3.95837 59.5603 3.27222 59.2783C2.58998 58.9963 2.05588 58.5847 1.66992 58.0435C1.28786 57.5023 1.08124 56.8429 1.05005 56.0654H3.18451C3.21569 56.4732 3.34435 56.8124 3.57046 57.083C3.79658 57.3536 4.09092 57.5556 4.45348 57.689C4.81995 57.8224 5.2293 57.8891 5.68153 57.8891C6.15325 57.8891 6.5665 57.8205 6.92127 57.6833C7.27993 57.5423 7.56063 57.3479 7.76336 57.1002C7.96608 56.8486 8.06939 56.5552 8.07329 56.2198C8.06939 55.9149 7.97778 55.6633 7.79844 55.4652C7.61911 55.2632 7.36765 55.0955 7.04407 54.9621C6.72439 54.8249 6.35013 54.7029 5.92129 54.5962L4.55875 54.2532C3.57241 54.0054 2.7927 53.63 2.21961 53.127C1.65043 52.6201 1.36583 51.9474 1.36583 51.1089C1.36583 50.4191 1.55686 49.815 1.93892 49.2966C2.32488 48.7783 2.84923 48.3762 3.51198 48.0904C4.17474 47.8007 4.92521 47.6559 5.7634 47.6559C6.61328 47.6559 7.35791 47.8007 7.99727 48.0904C8.64053 48.3762 9.14539 48.7745 9.51186 49.2852C9.87832 49.7921 10.0674 50.3752 10.0791 51.0346H7.99142Z" fill="white"/>
<path d="M13.5639 62.8171C13.2754 62.8171 13.0083 62.7942 12.7627 62.7485C12.521 62.7065 12.328 62.657 12.1838 62.5998L12.675 60.9877C12.983 61.0753 13.2578 61.1172 13.4995 61.1134C13.7413 61.1096 13.9537 61.0353 14.137 60.8905C14.3241 60.7495 14.482 60.5132 14.6106 60.1816L14.7919 59.7071L11.5347 50.743H13.7802L15.8504 57.3746H15.9439L18.0199 50.743H20.2713L16.6749 60.5875C16.5073 61.0525 16.2851 61.4507 16.0083 61.7823C15.7315 62.1177 15.3923 62.3731 14.9907 62.5484C14.5931 62.7275 14.1175 62.8171 13.5639 62.8171Z" fill="white"/>
<path d="M24.0178 54.3789V59.5241H21.9009V50.743H23.9242V52.2351H24.0295C24.2361 51.7435 24.5655 51.3528 25.0178 51.0632C25.4739 50.7735 26.0373 50.6287 26.7078 50.6287C27.3277 50.6287 27.8676 50.7583 28.3277 51.0174C28.7916 51.2766 29.1502 51.652 29.4036 52.1436C29.661 52.6353 29.7877 53.2318 29.7838 53.933V59.5241H27.6668V54.2532C27.6668 53.6662 27.5109 53.207 27.199 52.8754C26.891 52.5438 26.4641 52.378 25.9183 52.378C25.548 52.378 25.2186 52.4581 24.9301 52.6181C24.6455 52.7744 24.4213 53.0012 24.2576 53.2985C24.0977 53.5957 24.0178 53.9559 24.0178 54.3789Z" fill="white"/>
<path d="M35.4337 59.6785C34.7281 59.6785 34.0965 59.5013 33.539 59.1468C32.9815 58.7924 32.541 58.2779 32.2174 57.6033C31.8938 56.9287 31.732 56.1093 31.732 55.145C31.732 54.1693 31.8958 53.3461 32.2232 52.6753C32.5546 52.0007 33.001 51.4919 33.5624 51.1489C34.1238 50.8021 34.7495 50.6287 35.4395 50.6287C35.9658 50.6287 36.3986 50.7163 36.7378 50.8917C37.0769 51.0632 37.3459 51.2709 37.5448 51.5148C37.7436 51.7549 37.8976 51.9817 38.0067 52.1951H38.0945V47.816H40.2172V59.5241H38.1354V58.1407H38.0067C37.8976 58.3541 37.7397 58.5809 37.5331 58.821C37.3264 59.0573 37.0535 59.2593 36.7144 59.427C36.3752 59.5946 35.9483 59.6785 35.4337 59.6785ZM36.0243 57.9806C36.4727 57.9806 36.8547 57.8624 37.1705 57.6261C37.4863 57.386 37.726 57.0525 37.8898 56.6257C38.0535 56.1988 38.1354 55.7015 38.1354 55.1336C38.1354 54.5657 38.0535 54.0721 37.8898 53.6529C37.7299 53.2337 37.4921 52.9078 37.1763 52.6753C36.8645 52.4428 36.4805 52.3266 36.0243 52.3266C35.5526 52.3266 35.1588 52.4466 34.8431 52.6868C34.5273 52.9269 34.2895 53.2584 34.1296 53.6815C33.9698 54.1045 33.8899 54.5886 33.8899 55.1336C33.8899 55.6824 33.9698 56.1721 34.1296 56.6028C34.2934 57.0297 34.5331 57.367 34.8489 57.6147C35.1686 57.8586 35.5604 57.9806 36.0243 57.9806Z" fill="white"/>
<path d="M46.6142 59.6956C45.7137 59.6956 44.9359 59.5127 44.2809 59.1468C43.6299 58.7771 43.1289 58.255 42.778 57.5804C42.4272 56.902 42.2517 56.1035 42.2517 55.185C42.2517 54.2818 42.4272 53.489 42.778 52.8068C43.1328 52.1208 43.6279 51.5872 44.2634 51.2061C44.8989 50.8211 45.6454 50.6287 46.5031 50.6287C47.0567 50.6287 47.5791 50.7163 48.0703 50.8917C48.5654 51.0632 49.0021 51.3299 49.3802 51.692C49.7623 52.0541 50.0625 52.5152 50.2808 53.0755C50.4991 53.6319 50.6083 54.2951 50.6083 55.065V55.6995H43.2459V54.3046H48.5791C48.5752 53.9083 48.4875 53.5557 48.3159 53.247C48.1444 52.9345 47.9046 52.6887 47.5967 52.5095C47.2926 52.3304 46.9378 52.2408 46.5323 52.2408C46.0996 52.2408 45.7195 52.3437 45.392 52.5495C45.0645 52.7515 44.8092 53.0183 44.626 53.3499C44.4466 53.6777 44.355 54.0378 44.3511 54.4304V55.6481C44.3511 56.1588 44.4466 56.5971 44.6376 56.963C44.8287 57.325 45.0957 57.6033 45.4388 57.7976C45.7819 57.9882 46.1834 58.0835 46.6435 58.0835C46.9514 58.0835 47.2302 58.0416 47.4797 57.9577C47.7292 57.8701 47.9456 57.7424 48.1288 57.5747C48.312 57.407 48.4504 57.1993 48.544 56.9515L50.5206 57.1688C50.3958 57.6795 50.158 58.1254 49.8071 58.5065C49.4602 58.8838 49.0157 59.1773 48.4738 59.3869C47.9319 59.5927 47.3121 59.6956 46.6142 59.6956Z" fill="white"/>
<path d="M52.5639 59.5241V50.743H54.6164V52.2065H54.71C54.8738 51.6996 55.1544 51.309 55.5521 51.0346C55.9537 50.7564 56.4117 50.6172 56.9263 50.6172C57.0433 50.6172 57.1739 50.623 57.3181 50.6344C57.4663 50.642 57.5891 50.6554 57.6866 50.6744V52.5781C57.5969 52.5476 57.4546 52.521 57.2597 52.4981C57.0686 52.4714 56.8835 52.4581 56.7041 52.4581C56.3182 52.4581 55.9712 52.54 55.6632 52.7039C55.3591 52.864 55.1194 53.0869 54.9439 53.3728C54.7685 53.6586 54.6808 53.9883 54.6808 54.3618V59.5241H52.5639Z" fill="white"/>
<path d="M63.6006 59.5241V47.816H68.0917C69.0118 47.816 69.7837 47.9722 70.4075 48.2848C71.0351 48.5973 71.5088 49.0356 71.8285 49.5996C72.1521 50.1599 72.3138 50.8135 72.3138 51.5605C72.3138 52.3113 72.1501 52.9631 71.8226 53.5157C71.499 54.0645 71.0215 54.4895 70.3899 54.7906C69.7583 55.0878 68.9825 55.2365 68.0625 55.2365H64.8637V53.4757H67.7701C68.3081 53.4757 68.7486 53.4033 69.0917 53.2584C69.4348 53.1098 69.6882 52.8945 69.8519 52.6124C70.0195 52.3266 70.1034 51.976 70.1034 51.5605C70.1034 51.1451 70.0195 50.7907 69.8519 50.4972C69.6843 50.1999 69.4289 49.975 69.0858 49.8226C68.7428 49.6663 68.3003 49.5882 67.7584 49.5882H65.7701V59.5241H63.6006ZM69.7876 54.2189L72.7524 59.5241H70.3314L67.4192 54.2189H69.7876Z" fill="white"/>
<path d="M78.2299 59.6956C77.3293 59.6956 76.5515 59.5127 75.8966 59.1468C75.2455 58.7771 74.7446 58.255 74.3937 57.5804C74.0428 56.902 73.8674 56.1035 73.8674 55.185C73.8674 54.2818 74.0428 53.489 74.3937 52.8068C74.7485 52.1208 75.2436 51.5872 75.879 51.2061C76.5145 50.8211 77.2611 50.6287 78.1187 50.6287C78.6723 50.6287 79.1947 50.7163 79.686 50.8917C80.1811 51.0632 80.6177 51.3299 80.9959 51.692C81.3779 52.0541 81.6781 52.5152 81.8964 53.0755C82.1148 53.6319 82.2239 54.2951 82.2239 55.065V55.6995H74.8615V54.3046H80.1947C80.1908 53.9083 80.1031 53.5557 79.9316 53.247C79.76 52.9345 79.5203 52.6887 79.2123 52.5095C78.9082 52.3304 78.5534 52.2408 78.148 52.2408C77.7152 52.2408 77.3351 52.3437 77.0077 52.5495C76.6802 52.7515 76.4248 53.0183 76.2416 53.3499C76.0623 53.6777 75.9706 54.0378 75.9667 54.4304V55.6481C75.9667 56.1588 76.0623 56.5971 76.2533 56.963C76.4443 57.325 76.7114 57.6033 77.0544 57.7976C77.3975 57.9882 77.7991 58.0835 78.2591 58.0835C78.5671 58.0835 78.8458 58.0416 79.0953 57.9577C79.3448 57.8701 79.5612 57.7424 79.7444 57.5747C79.9277 57.407 80.0661 57.1993 80.1596 56.9515L82.1362 57.1688C82.0115 57.6795 81.7736 58.1254 81.4228 58.5065C81.0758 58.8838 80.6314 59.1773 80.0895 59.3869C79.5476 59.5927 78.9277 59.6956 78.2299 59.6956Z" fill="white"/>
<path d="M88.0975 59.6956C87.2009 59.6956 86.4309 59.5032 85.7877 59.1182C85.1483 58.7333 84.6551 58.2016 84.3082 57.5232C83.9651 56.841 83.7935 56.0559 83.7935 55.1679C83.7935 54.276 83.969 53.489 84.3198 52.8068C84.6707 52.1208 85.1658 51.5872 85.8052 51.2061C86.4485 50.8211 87.2087 50.6287 88.0858 50.6287C88.8149 50.6287 89.4601 50.7602 90.0215 51.0231C90.5868 51.2823 91.037 51.6501 91.3723 52.1265C91.7076 52.5991 91.8986 53.1517 91.9454 53.7844H89.9221C89.8402 53.3613 89.6453 53.0088 89.3373 52.7268C89.0332 52.4409 88.6258 52.298 88.1151 52.298C87.6824 52.298 87.3022 52.4123 86.9748 52.641C86.6473 52.8659 86.3919 53.1898 86.2087 53.6129C86.0294 54.0359 85.9397 54.5428 85.9397 55.1336C85.9397 55.7319 86.0294 56.2465 86.2087 56.6771C86.388 57.104 86.6395 57.4337 86.9631 57.6662C87.2905 57.8948 87.6746 58.0092 88.1151 58.0092C88.427 58.0092 88.7057 57.952 88.9513 57.8377C89.2008 57.7195 89.4094 57.5499 89.577 57.3289C89.7447 57.1078 89.8597 56.8391 89.9221 56.5228H91.9454C91.8947 57.144 91.7076 57.6947 91.384 58.175C91.0604 58.6514 90.6199 59.0249 90.0624 59.2955C89.5049 59.5623 88.85 59.6956 88.0975 59.6956Z" fill="white"/>
<path d="M97.7664 59.6956C96.8892 59.6956 96.129 59.507 95.4857 59.1297C94.8425 58.7524 94.3435 58.2245 93.9887 57.5461C93.6378 56.8677 93.4624 56.075 93.4624 55.1679C93.4624 54.2608 93.6378 53.4662 93.9887 52.7839C94.3435 52.1017 94.8425 51.572 95.4857 51.1946C96.129 50.8173 96.8892 50.6287 97.7664 50.6287C98.6436 50.6287 99.4038 50.8173 100.047 51.1946C100.69 51.572 101.187 52.1017 101.538 52.7839C101.893 53.4662 102.07 54.2608 102.07 55.1679C102.07 56.075 101.893 56.8677 101.538 57.5461C101.187 58.2245 100.69 58.7524 100.047 59.1297C99.4038 59.507 98.6436 59.6956 97.7664 59.6956ZM97.7781 58.0377C98.2537 58.0377 98.6514 57.9101 98.971 57.6547C99.2907 57.3956 99.5285 57.0487 99.6845 56.6142C99.8443 56.1798 99.9242 55.6957 99.9242 55.1622C99.9242 54.6248 99.8443 54.1388 99.6845 53.7044C99.5285 53.2661 99.2907 52.9173 98.971 52.6582C98.6514 52.399 98.2537 52.2694 97.7781 52.2694C97.2908 52.2694 96.8853 52.399 96.5617 52.6582C96.2421 52.9173 96.0023 53.2661 95.8425 53.7044C95.6865 54.1388 95.6086 54.6248 95.6086 55.1622C95.6086 55.6957 95.6865 56.1798 95.8425 56.6142C96.0023 57.0487 96.2421 57.3956 96.5617 57.6547C96.8853 57.9101 97.2908 58.0377 97.7781 58.0377Z" fill="white"/>
<path d="M104.032 59.5241V50.743H106.084V52.2065H106.178C106.342 51.6996 106.622 51.309 107.02 51.0346C107.422 50.7564 107.88 50.6172 108.394 50.6172C108.511 50.6172 108.642 50.623 108.786 50.6344C108.934 50.642 109.057 50.6554 109.155 50.6744V52.5781C109.065 52.5476 108.923 52.521 108.728 52.4981C108.537 52.4714 108.351 52.4581 108.172 52.4581C107.786 52.4581 107.439 52.54 107.131 52.7039C106.827 52.864 106.587 53.0869 106.412 53.3728C106.236 53.6586 106.149 53.9883 106.149 54.3618V59.5241H104.032Z" fill="white"/>
<path d="M113.689 59.6785C112.983 59.6785 112.352 59.5013 111.794 59.1468C111.237 58.7924 110.796 58.2779 110.473 57.6033C110.149 56.9287 109.987 56.1093 109.987 55.145C109.987 54.1693 110.151 53.3461 110.479 52.6753C110.81 52.0007 111.256 51.4919 111.818 51.1489C112.379 50.8021 113.005 50.6287 113.695 50.6287C114.221 50.6287 114.654 50.7163 114.993 50.8917C115.332 51.0632 115.601 51.2709 115.8 51.5148C115.999 51.7549 116.153 51.9817 116.262 52.1951H116.35V47.816H118.472V59.5241H116.391V58.1407H116.262C116.153 58.3541 115.995 58.5809 115.788 58.821C115.582 59.0573 115.309 59.2593 114.97 59.427C114.63 59.5946 114.204 59.6785 113.689 59.6785ZM114.28 57.9806C114.728 57.9806 115.11 57.8624 115.426 57.6261C115.742 57.386 115.981 57.0525 116.145 56.6257C116.309 56.1988 116.391 55.7015 116.391 55.1336C116.391 54.5657 116.309 54.0721 116.145 53.6529C115.985 53.2337 115.747 52.9078 115.432 52.6753C115.12 52.4428 114.736 52.3266 114.28 52.3266C113.808 52.3266 113.414 52.4466 113.098 52.6868C112.783 52.9269 112.545 53.2584 112.385 53.6815C112.225 54.1045 112.145 54.5886 112.145 55.1336C112.145 55.6824 112.225 56.1721 112.385 56.6028C112.549 57.0297 112.788 57.367 113.104 57.6147C113.424 57.8586 113.816 57.9806 114.28 57.9806Z" fill="white"/>
<path d="M120.893 59.5241V50.743H123.01V59.5241H120.893ZM121.957 49.4967C121.622 49.4967 121.334 49.3881 121.092 49.1709C120.85 48.9498 120.729 48.6849 120.729 48.3762C120.729 48.0637 120.85 47.7988 121.092 47.5816C121.334 47.3605 121.622 47.25 121.957 47.25C122.296 47.25 122.585 47.3605 122.823 47.5816C123.064 47.7988 123.185 48.0637 123.185 48.3762C123.185 48.6849 123.064 48.9498 122.823 49.1709C122.585 49.3881 122.296 49.4967 121.957 49.4967Z" fill="white"/>
<path d="M127.468 54.3789V59.5241H125.351V50.743H127.375V52.2351H127.48C127.687 51.7435 128.016 51.3528 128.468 51.0632C128.924 50.7735 129.488 50.6287 130.158 50.6287C130.778 50.6287 131.318 50.7583 131.778 51.0174C132.242 51.2766 132.601 51.652 132.854 52.1436C133.111 52.6353 133.238 53.2318 133.234 53.933V59.5241H131.117V54.2532C131.117 53.6662 130.961 53.207 130.65 52.8754C130.342 52.5438 129.915 52.378 129.369 52.378C128.999 52.378 128.669 52.4581 128.381 52.6181C128.096 52.7744 127.872 53.0012 127.708 53.2985C127.548 53.5957 127.468 53.9559 127.468 54.3789Z" fill="white"/>
<path d="M139.457 63C138.697 63 138.044 62.899 137.498 62.697C136.952 62.4988 136.514 62.232 136.183 61.8966C135.851 61.5613 135.621 61.1897 135.492 60.7819L137.399 60.3302C137.485 60.5017 137.609 60.6713 137.773 60.839C137.937 61.0105 138.157 61.1515 138.434 61.2621C138.715 61.3764 139.067 61.4336 139.492 61.4336C140.093 61.4336 140.59 61.2907 140.984 61.0048C141.377 60.7228 141.574 60.2578 141.574 59.6099V57.9463H141.469C141.36 58.1597 141.2 58.3789 140.989 58.6037C140.783 58.8286 140.508 59.0172 140.165 59.1697C139.826 59.3221 139.399 59.3984 138.884 59.3984C138.194 59.3984 137.568 59.2402 137.007 58.9239C136.45 58.6037 136.005 58.1273 135.674 57.4946C135.346 56.8582 135.183 56.0616 135.183 55.105C135.183 54.1407 135.346 53.327 135.674 52.6639C136.005 51.9969 136.452 51.4919 137.013 51.1489C137.574 50.8021 138.2 50.6287 138.89 50.6287C139.416 50.6287 139.849 50.7163 140.188 50.8917C140.531 51.0632 140.804 51.2709 141.007 51.5148C141.21 51.7549 141.364 51.9817 141.469 52.1951H141.586V50.743H143.674V59.6671C143.674 60.4179 143.49 61.0391 143.124 61.5308C142.757 62.0224 142.256 62.3902 141.621 62.6341C140.986 62.878 140.264 63 139.457 63ZM139.475 57.7748C139.923 57.7748 140.305 57.6681 140.621 57.4546C140.937 57.2412 141.177 56.9344 141.34 56.5342C141.504 56.134 141.586 55.6538 141.586 55.0936C141.586 54.5409 141.504 54.0569 141.34 53.6415C141.18 53.226 140.943 52.904 140.627 52.6753C140.315 52.4428 139.931 52.3266 139.475 52.3266C139.003 52.3266 138.609 52.4466 138.294 52.6868C137.978 52.9269 137.74 53.2565 137.58 53.6758C137.42 54.0912 137.34 54.5638 137.34 55.0936C137.34 55.6309 137.42 56.1016 137.58 56.5056C137.744 56.9058 137.984 57.2183 138.299 57.4432C138.619 57.6642 139.011 57.7748 139.475 57.7748Z" fill="white"/>
<path d="M153.107 53.0641L151.177 53.2699C151.123 53.0793 151.027 52.9002 150.891 52.7325C150.758 52.5648 150.579 52.4295 150.353 52.3266C150.127 52.2237 149.85 52.1722 149.522 52.1722C149.082 52.1722 148.711 52.2656 148.411 52.4524C148.115 52.6391 147.969 52.8811 147.973 53.1784C147.969 53.4338 148.064 53.6415 148.259 53.8015C148.458 53.9616 148.786 54.0931 149.242 54.196L150.774 54.5162C151.624 54.6953 152.255 54.9792 152.668 55.368C153.086 55.7567 153.296 56.2655 153.3 56.8944C153.296 57.447 153.13 57.9348 152.803 58.3579C152.479 58.7771 152.029 59.1049 151.452 59.3412C150.875 59.5775 150.212 59.6956 149.464 59.6956C148.364 59.6956 147.48 59.4708 146.809 59.0211C146.138 58.5675 145.739 57.9368 145.61 57.1288L147.674 56.9344C147.768 57.3308 147.967 57.6299 148.271 57.8319C148.575 58.0339 148.971 58.1349 149.458 58.1349C149.961 58.1349 150.364 58.0339 150.669 57.8319C150.977 57.6299 151.131 57.3803 151.131 57.083C151.131 56.8315 151.031 56.6238 150.832 56.4599C150.637 56.296 150.333 56.1702 149.92 56.0826L148.388 55.7682C147.526 55.5928 146.889 55.2975 146.476 54.882C146.062 54.4628 145.858 53.933 145.862 53.2927C145.858 52.7515 146.008 52.2828 146.312 51.8864C146.62 51.4862 147.047 51.1775 147.593 50.9603C148.142 50.7392 148.776 50.6287 149.493 50.6287C150.546 50.6287 151.374 50.8478 151.978 51.2861C152.587 51.7244 152.963 52.3171 153.107 53.0641Z" fill="white"/>
</svg>
