<svg width="16" height="16" viewBox="0 0 16 16" fill="none" xmlns="http://www.w3.org/2000/svg">
<g clip-path="url(#clip0_109_1514)">
<path d="M6.27429 8.20577C6.24664 8.17911 6.22464 8.14716 6.20962 8.11181C6.1946 8.07647 6.18686 8.03846 6.18686 8.00005C6.18686 7.96165 6.1946 7.92363 6.20962 7.88829C6.22464 7.85294 6.24664 7.82099 6.27429 7.79434L12.1143 1.95434C12.2214 1.84809 12.3064 1.72169 12.3645 1.58242C12.4225 1.44316 12.4523 1.29378 12.4523 1.14291C12.4523 0.992038 12.4225 0.84266 12.3645 0.703392C12.3064 0.564125 12.2214 0.437723 12.1143 0.33148C11.9002 0.118622 11.6105 -0.000854492 11.3086 -0.000854492C11.0067 -0.000854492 10.717 0.118622 10.5029 0.33148L4.04572 6.78862C3.72746 7.11151 3.54904 7.54668 3.54904 8.00005C3.54904 8.45343 3.72746 8.88859 4.04572 9.21148L10.5029 15.6686C10.717 15.8815 11.0067 16.001 11.3086 16.001C11.6105 16.001 11.9002 15.8815 12.1143 15.6686C12.2214 15.5624 12.3064 15.436 12.3645 15.2967C12.4225 15.1574 12.4523 15.0081 12.4523 14.8572C12.4523 14.7063 12.4225 14.5569 12.3645 14.4177C12.3064 14.2784 12.2214 14.152 12.1143 14.0458L6.27429 8.20577Z" fill="black"/>
</g>
<defs>
<clipPath id="clip0_109_1514">
<rect width="16" height="16" fill="white"/>
</clipPath>
</defs>
</svg>
