<svg width="16" height="16" viewBox="0 0 16 16" fill="none" xmlns="http://www.w3.org/2000/svg">
<g clip-path="url(#clip0_109_1509)">
<path d="M3.88572 15.6686C3.77861 15.5624 3.69358 15.436 3.63556 15.2967C3.57754 15.1574 3.54767 15.0081 3.54767 14.8572C3.54767 14.7063 3.57754 14.5569 3.63556 14.4177C3.69358 14.2784 3.77861 14.152 3.88572 14.0458L9.72572 8.20577C9.75338 8.17911 9.77537 8.14716 9.79039 8.11181C9.80542 8.07647 9.81316 8.03846 9.81316 8.00005C9.81316 7.96165 9.80542 7.92363 9.79039 7.88829C9.77537 7.85294 9.75338 7.82099 9.72572 7.79434L3.88572 1.95434C3.77861 1.84809 3.69358 1.72169 3.63556 1.58242C3.57754 1.44316 3.54767 1.29378 3.54767 1.14291C3.54767 0.992038 3.57754 0.84266 3.63556 0.703392C3.69358 0.564125 3.77861 0.437723 3.88572 0.33148C4.09985 0.118622 4.38951 -0.000854492 4.69144 -0.000854492C4.99336 -0.000854492 5.28302 0.118622 5.49715 0.33148L11.9543 6.78862C12.2726 7.11151 12.451 7.54668 12.451 8.00005C12.451 8.45343 12.2726 8.88859 11.9543 9.21148L5.49715 15.6686C5.28302 15.8815 4.99336 16.001 4.69144 16.001C4.38951 16.001 4.09985 15.8815 3.88572 15.6686Z" fill="black"/>
</g>
<defs>
<clipPath id="clip0_109_1509">
<rect width="16" height="16" fill="white"/>
</clipPath>
</defs>
</svg>
