<svg width="13" height="12" viewBox="0 0 13 12" fill="none" xmlns="http://www.w3.org/2000/svg">
<path d="M11.7521 3.25354C11.6724 3.1732 11.5776 3.10944 11.4732 3.06592C11.3687 3.0224 11.2567 3 11.1435 3C11.0304 3 10.9184 3.0224 10.8139 3.06592C10.7094 3.10944 10.6146 3.1732 10.535 3.25354L6.15496 7.63354C6.13498 7.65428 6.11101 7.67078 6.0845 7.68204C6.05799 7.69331 6.02948 7.69912 6.00068 7.69912C5.97188 7.69912 5.94337 7.69331 5.91686 7.68204C5.89035 7.67078 5.86638 7.65428 5.84639 7.63354L1.46639 3.25354C1.38671 3.1732 1.29191 3.10944 1.18746 3.06592C1.08301 3.0224 0.970975 3 0.857822 3C0.744669 3 0.632636 3.0224 0.528185 3.06592C0.423734 3.10944 0.328933 3.1732 0.249251 3.25354C0.0896072 3.41414 0 3.63138 0 3.85783C0 4.08427 0.0896072 4.30152 0.249251 4.46211L5.09211 9.30497C5.33318 9.54574 5.65996 9.68098 6.00068 9.68098C6.34139 9.68098 6.66818 9.54574 6.90925 9.30497L11.7521 4.46211C11.9118 4.30152 12.0014 4.08427 12.0014 3.85783C12.0014 3.63138 11.9118 3.41414 11.7521 3.25354Z" fill="black"/>
</svg>
